<svg width="143" height="35" viewBox="0 0 143 35" fill="none" xmlns="http://www.w3.org/2000/svg">
<path d="M52.624 8.67126V20.1913L45.016 8.67126H41.656V25.4473H45.016V13.9513L52.624 25.4473H55.984V8.67126H52.624ZM65.0164 14.6953C66.7444 14.6953 68.1364 15.7993 68.1844 17.5513H61.8724C62.1364 15.7273 63.4084 14.6953 65.0164 14.6953ZM71.3284 21.2713H67.7044C67.2724 22.1593 66.4804 22.8793 65.0404 22.8793C63.3604 22.8793 62.0164 21.7753 61.8484 19.8073H71.5684C71.6404 19.3753 71.6644 18.9433 71.6644 18.5113C71.6644 14.5513 68.9524 11.9353 65.1124 11.9353C61.1764 11.9353 58.4404 14.5993 58.4404 18.7993C58.4404 22.9753 61.2484 25.6633 65.1124 25.6633C68.4004 25.6633 70.6084 23.7193 71.3284 21.2713ZM74.6449 21.3193C74.6449 24.3673 76.3489 25.4473 78.8929 25.4473H81.0049V22.6153H79.4449C78.3889 22.6153 78.0289 22.2313 78.0289 21.3433V14.9113H81.0049V12.1513H78.0289V8.86326H74.6449V12.1513H73.0609V14.9113H74.6449V21.3193ZM86.7816 14.0953V7.68727H83.4216V25.4473H86.7816V23.5513C87.5976 24.7033 89.0856 25.6633 91.1736 25.6633C94.5816 25.6633 97.2456 22.9033 97.2456 18.7513C97.2456 14.5993 94.5816 11.9353 91.1736 11.9353C89.1576 11.9353 87.5976 12.8713 86.7816 14.0953ZM93.8136 18.7513C93.8136 21.2713 92.1096 22.7113 90.2856 22.7113C88.4856 22.7113 86.7816 21.3193 86.7816 18.7993C86.7816 16.2793 88.4856 14.8873 90.2856 14.8873C92.1096 14.8873 93.8136 16.2313 93.8136 18.7513ZM112.527 18.7993C112.527 14.5993 109.527 11.9353 105.687 11.9353C101.847 11.9353 98.8473 14.5993 98.8473 18.7993C98.8473 22.9753 101.751 25.6633 105.591 25.6633C109.455 25.6633 112.527 22.9753 112.527 18.7993ZM102.255 18.7993C102.255 16.1353 103.863 14.8633 105.639 14.8633C107.415 14.8633 109.071 16.1353 109.071 18.7993C109.071 21.4393 107.367 22.7353 105.591 22.7353C103.791 22.7353 102.255 21.4393 102.255 18.7993ZM127.832 18.7993C127.832 14.5993 124.832 11.9353 120.992 11.9353C117.152 11.9353 114.152 14.5993 114.152 18.7993C114.152 22.9753 117.056 25.6633 120.896 25.6633C124.76 25.6633 127.832 22.9753 127.832 18.7993ZM117.56 18.7993C117.56 16.1353 119.168 14.8633 120.944 14.8633C122.72 14.8633 124.376 16.1353 124.376 18.7993C124.376 21.4393 122.672 22.7353 120.896 22.7353C119.096 22.7353 117.56 21.4393 117.56 18.7993ZM130.297 25.4473H133.657V19.7833L138.169 25.4473H142.537L136.633 18.8233L142.489 12.1513H138.121L133.657 17.7913V7.68727H130.297V25.4473Z" fill="white"/>
<path d="M34.0013 17.4476C34.0013 26.8364 26.3901 34.4476 17.0013 34.4476C13.0609 34.4476 9.43369 33.107 6.55078 30.857L24.7833 12.6245C25.6535 14.0251 26.1551 15.6769 26.1551 17.4476C26.1551 21.6403 23.3363 25.1746 19.4905 26.2589C18.9167 25.5129 18.0151 25.0322 17.0013 25.0322C15.2679 25.0322 13.8628 26.4373 13.8628 28.1706C13.8628 29.904 15.2679 31.3091 17.0013 31.3091C18.2989 31.3091 19.4126 30.5216 19.8905 29.3984C25.2853 28.0988 29.2936 23.2413 29.2936 17.4476C29.2936 14.8094 28.4612 12.3637 27.0465 10.3613L30.4107 6.99707C32.6607 9.87998 34.0013 13.5072 34.0013 17.4476Z" fill="#FFAF2E"/>
<path d="M6.95477 24.5335L3.59053 27.8977C1.34058 25.0148 0 21.3876 0 17.4473C0 8.05842 7.61116 0.447266 17 0.447266C20.9403 0.447266 24.5676 1.78785 27.4505 4.0378L9.218 22.2703C8.34783 20.8698 7.84615 19.218 7.84615 17.4473C7.84615 13.2546 10.6649 9.72021 14.5108 8.63592C15.0846 9.3819 15.9861 9.86264 17 9.86264C18.7333 9.86264 20.1385 8.45751 20.1385 6.72418C20.1385 4.99086 18.7333 3.58572 17 3.58572C15.7024 3.58572 14.5887 4.37324 14.1108 5.49641C8.71598 6.79598 4.70768 11.6535 4.70768 17.4473C4.70768 20.0852 5.54001 22.5311 6.95477 24.5335Z" fill="#F04148"/>
<circle cx="16.9991" cy="6.72371" r="1.30769" fill="#F04148"/>
<circle cx="16.9991" cy="28.17" r="1.30769" fill="#FFAF2E"/>
</svg>
