<svg width="26" height="24" viewBox="0 0 26 24" fill="none" xmlns="http://www.w3.org/2000/svg">
<path d="M13.4825 19.3086L18.9988 22.8036C19.704 23.2503 20.5794 22.5859 20.3702 21.7628L18.7764 15.4932C18.7315 15.3185 18.7368 15.1348 18.7917 14.9631C18.8466 14.7913 18.9489 14.6386 19.0868 14.5224L24.0335 10.4051C24.6835 9.86412 24.348 8.78541 23.5129 8.73121L17.0528 8.31195C16.8788 8.29952 16.7119 8.23791 16.5716 8.1343C16.4312 8.03069 16.3232 7.88935 16.2601 7.72672L13.8507 1.65937C13.7852 1.48676 13.6688 1.33815 13.5168 1.23329C13.3649 1.12843 13.1846 1.07227 13 1.07227C12.8154 1.07227 12.6351 1.12843 12.4832 1.23329C12.3312 1.33815 12.2148 1.48676 12.1493 1.65937L9.73995 7.72672C9.67683 7.88935 9.5688 8.03069 9.42845 8.1343C9.28811 8.23791 9.12122 8.29952 8.94721 8.31195L2.4871 8.73121C1.65201 8.78541 1.31653 9.86412 1.96651 10.4051L6.91325 14.5224C7.0511 14.6386 7.15336 14.7913 7.20827 14.9631C7.26317 15.1348 7.26849 15.3185 7.2236 15.4932L5.74553 21.3076C5.49444 22.2953 6.54501 23.0926 7.39117 22.5565L12.5175 19.3086C12.6617 19.2169 12.8291 19.1681 13 19.1681C13.1709 19.1681 13.3383 19.2169 13.4825 19.3086V19.3086Z" stroke="#217BF4" stroke-width="1.5" stroke-linecap="round" stroke-linejoin="round"/>
</svg>
