<svg width="168" height="37" viewBox="0 0 168 37" fill="none" xmlns="http://www.w3.org/2000/svg">
<circle cx="150" cy="18.4473" r="18" fill="white"/>
<path d="M143.568 14.0445C144.675 14.0445 145.573 13.1466 145.573 12.0389C145.573 10.9312 144.675 10.0332 143.568 10.0332C142.46 10.0332 141.562 10.9312 141.562 12.0389C141.562 13.1466 142.46 14.0445 143.568 14.0445Z" fill="#2B2B39"/>
<path d="M147.466 15.5641V26.6915H150.921V21.1887C150.921 19.7367 151.194 18.3306 152.995 18.3306C154.77 18.3306 154.792 19.9906 154.792 21.2804V26.6924H158.249V20.5901C158.249 17.5926 157.604 15.2891 154.1 15.2891C152.418 15.2891 151.29 16.2121 150.829 17.0857H150.783V15.5641H147.466V15.5641ZM141.836 15.5641H145.296V26.6915H141.836V15.5641Z" fill="#2B2B39"/>
<circle cx="106" cy="18.4473" r="18" fill="white"/>
<path d="M104.514 18.5422V27.6903H107.549V18.6851H110.056L110.451 15.3975H107.549V13.3963C107.549 12.3958 107.812 11.824 109 11.824H110.583V8.96521C110.319 8.96521 109.396 8.82227 108.34 8.82227C106.097 8.82227 104.514 10.3946 104.514 13.1105V15.3975H101.875V18.5422H104.514Z" fill="#2B2B39"/>
<circle cx="62" cy="18.4473" r="18" fill="white"/>
<path d="M61.9542 10.7017C64.475 10.7017 64.75 10.7017 65.7583 10.7475C66.675 10.7934 67.1792 10.9309 67.5 11.0684C67.9125 11.2059 68.2792 11.4809 68.6 11.7559C68.9208 12.0767 69.15 12.4434 69.2875 12.8559C69.425 13.1767 69.5625 13.6809 69.6083 14.5975C69.6542 15.6059 69.6542 15.8809 69.6542 18.4017C69.6542 20.9225 69.6542 21.1975 69.6083 22.2059C69.5625 23.1225 69.425 23.6267 69.2875 23.9475C68.9667 24.7725 68.325 25.4142 67.5 25.735C67.1792 25.8725 66.675 26.01 65.7583 26.0558C64.75 26.1017 64.475 26.1017 61.9542 26.1017C59.4333 26.1017 59.1583 26.1017 58.15 26.0558C57.2333 26.01 56.7292 25.8725 56.4083 25.735C55.9958 25.5975 55.6292 25.3225 55.3083 25.0475C54.9875 24.7267 54.7583 24.36 54.6208 23.9475C54.4833 23.6267 54.3458 23.1225 54.3 22.2059C54.2542 21.1975 54.2542 20.9225 54.2542 18.4017C54.2542 15.8809 54.2542 15.6059 54.3 14.5975C54.3458 13.6809 54.4833 13.1767 54.6208 12.8559C54.7583 12.4434 55.0333 12.0767 55.3083 11.7559C55.6292 11.435 55.9958 11.2059 56.4083 11.0684C56.7292 10.9309 57.2333 10.7934 58.15 10.7475C59.1583 10.7017 59.4792 10.7017 61.9542 10.7017ZM61.9542 9.00586C59.3875 9.00586 59.0667 9.00586 58.0583 9.05169C57.05 9.09753 56.3625 9.23503 55.7667 9.51003C55.1708 9.73919 54.6208 10.1059 54.1625 10.5642C53.7042 11.0225 53.2917 11.6184 53.0625 12.2142C52.8333 12.81 52.65 13.4975 52.6042 14.5059C52.5583 15.5142 52.5583 15.835 52.5583 18.4017C52.5583 20.9684 52.5583 21.2892 52.6042 22.2975C52.65 23.3059 52.7875 23.9934 53.0625 24.5892C53.2917 25.185 53.6583 25.7809 54.1625 26.2392C54.6208 26.6975 55.2167 27.11 55.8125 27.3392C56.4083 27.5684 57.0958 27.7517 58.1042 27.7975C59.1125 27.8433 59.4333 27.8433 62 27.8433C64.5667 27.8433 64.8875 27.8433 65.8958 27.7975C66.9042 27.7517 67.5917 27.6142 68.1875 27.3392C69.4708 26.835 70.4333 25.8725 70.9375 24.5892C71.1667 23.9934 71.35 23.3059 71.3958 22.2975C71.4417 21.2892 71.4417 20.9684 71.4417 18.4017C71.4417 15.835 71.4417 15.5142 71.3958 14.5059C71.35 13.4975 71.2125 12.81 70.9375 12.2142C70.7083 11.5725 70.3417 11.0225 69.8375 10.5642C69.3792 10.1059 68.7833 9.69336 68.1875 9.46419C67.5917 9.23503 66.9042 9.05169 65.8958 9.00586C64.8417 9.00586 64.5208 9.00586 61.9542 9.00586Z" fill="#2B2B39"/>
<path d="M61.9529 13.5889C59.2945 13.5889 57.1404 15.743 57.1404 18.4014C57.1404 21.0597 59.2945 23.2139 61.9529 23.2139C64.6112 23.2139 66.7654 21.0597 66.7654 18.4014C66.8112 15.743 64.657 13.5889 61.9529 13.5889ZM61.9529 21.5639C60.2112 21.5639 58.8362 20.143 58.8362 18.4472C58.8362 16.7055 60.257 15.3305 61.9529 15.3305C63.6945 15.3305 65.0695 16.7514 65.0695 18.4472C65.1154 20.143 63.6945 21.5639 61.9529 21.5639Z" fill="#2B2B39"/>
<path d="M66.9971 14.5514C67.63 14.5514 68.143 14.0384 68.143 13.4056C68.143 12.7728 67.63 12.2598 66.9971 12.2598C66.3643 12.2598 65.8513 12.7728 65.8513 13.4056C65.8513 14.0384 66.3643 14.5514 66.9971 14.5514Z" fill="#2B2B39"/>
<circle cx="18" cy="18.4473" r="18" fill="white"/>
<path d="M25.7627 12.5775C26.623 12.0619 27.2836 11.2454 27.5947 10.2725C26.7897 10.7499 25.898 11.0966 24.9489 11.2835C24.1889 10.4738 23.1061 9.96777 21.9078 9.96777C19.6067 9.96777 17.7412 11.8332 17.7412 14.1341C17.7412 14.4607 17.7781 14.7787 17.8491 15.0836C14.3864 14.9099 11.3163 13.2511 9.2614 10.7304C8.90276 11.3458 8.6973 12.0615 8.6973 12.825C8.6973 14.2705 9.43292 15.5458 10.5509 16.2929C9.86784 16.2713 9.22545 16.0839 8.66365 15.7718C8.66335 15.7892 8.66335 15.8067 8.66335 15.8242C8.66335 17.8429 10.0995 19.5269 12.0055 19.9096C11.6559 20.0048 11.2878 20.0557 10.9078 20.0557C10.6393 20.0557 10.3783 20.0296 10.124 19.981C10.6541 21.6363 12.1928 22.8408 14.016 22.8745C12.5901 23.9919 10.7935 24.658 8.84155 24.658C8.50528 24.658 8.17361 24.6383 7.84766 24.5998C9.69149 25.782 11.8816 26.4717 14.2345 26.4717C21.898 26.4717 26.0887 20.123 26.0887 14.6173C26.0887 14.4366 26.0847 14.2569 26.0767 14.0783C26.8907 13.4908 27.5971 12.757 28.1557 11.9215C27.4085 12.2528 26.6055 12.4768 25.7627 12.5775Z" fill="#2B2B39"/>
</svg>
